<mxfile host="app.diagrams.net" modified="2023-11-26T21:23:57.004Z" agent="Mozilla/5.0 (X11; Linux x86_64) AppleWebKit/537.36 (KHTML, like Gecko) Chrome/119.0.0.0 Safari/537.36 Edg/119.0.0.0" version="22.1.4" etag="e17GDQtNOIl60n1xwn7A" type="github">
  <diagram name="PÃ¡gina-1" id="usGXHWezCPKbXy0BX8PK">
    <mxGraphModel>
      <root>
        <mxCell id="0" />
        <mxCell id="1" parent="0" />
      </root>
    </mxGraphModel>
  </diagram>
</mxfile>
